<?xml version="1.0" encoding="UTF-8" standalone="no" ?>
<!DOCTYPE svg PUBLIC "-//W3C//DTD SVG 1.1//EN" "http://www.w3.org/Graphics/SVG/1.1/DTD/svg11.dtd">
<svg xmlns="http://www.w3.org/2000/svg" xmlns:xlink="http://www.w3.org/1999/xlink" version="1.1" width="300" height="50.33557" viewBox="-0.0000013906666822549596 0 298.00000278133336 50" xml:space="preserve">
<desc>Created with Fabric.js 4.6.0</desc>
<defs>
</defs>
<g transform="matrix(1 0 0 1 149.22 26.84)" id="-7yoRX4bnW1bx5B7wfbTL"  >
<path style="stroke: none; stroke-width: 1; stroke-dasharray: none; stroke-linecap: butt; stroke-dashoffset: 0; stroke-linejoin: miter; stroke-miterlimit: 4; fill: rgb(67,83,255); fill-rule: nonzero; opacity: 1;" vector-effect="non-scaling-stroke"  transform=" translate(-149.22, -26.84)" d="M 27.83 14.151 Q 27.83 17.063 26.452 19.611 Q 25.074 22.159 22.136 23.719 Q 19.198 25.279 14.726 25.279 L 14.726 25.279 L 8.642 25.279 L 8.642 39.215 L 1.362 39.215 L 1.362 2.919 L 14.726 2.919 Q 18.938 2.919 21.902 4.375 Q 24.866 5.831 26.348 8.379 Q 27.83 10.927 27.83 14.151 L 27.83 14.151 Z M 14.414 19.403 Q 17.43 19.403 18.886 18.025 Q 20.342 16.647 20.342 14.151 L 20.342 14.151 Q 20.342 8.847 14.414 8.847 L 14.414 8.847 L 8.642 8.847 L 8.642 19.403 L 14.414 19.403 Z M 31.21 24.707 Q 31.21 20.339 32.952 16.959 Q 34.694 13.579 37.684 11.759 Q 40.674 9.939 44.366 9.939 L 44.366 9.939 Q 47.59 9.939 50.008 11.239 Q 52.426 12.539 53.882 14.515 L 53.882 14.515 L 53.882 10.407 L 61.214 10.407 L 61.214 39.215 L 53.882 39.215 L 53.882 35.003 Q 52.478 37.031 50.008 38.357 Q 47.538 39.683 44.314 39.683 L 44.314 39.683 Q 40.674 39.683 37.684 37.811 Q 34.694 35.939 32.952 32.533 Q 31.21 29.127 31.21 24.707 L 31.21 24.707 Z M 53.882 24.811 Q 53.882 22.159 52.842 20.261 Q 51.802 18.363 50.034 17.349 Q 48.266 16.335 46.238 16.335 L 46.238 16.335 Q 44.21 16.335 42.494 17.323 Q 40.778 18.311 39.712 20.209 Q 38.646 22.107 38.646 24.707 L 38.646 24.707 Q 38.646 27.307 39.712 29.257 Q 40.778 31.207 42.52 32.247 Q 44.262 33.287 46.238 33.287 L 46.238 33.287 Q 48.266 33.287 50.034 32.273 Q 51.802 31.259 52.842 29.361 Q 53.882 27.463 53.882 24.811 L 53.882 24.811 Z M 75.722 14.567 Q 77.126 12.591 79.596 11.265 Q 82.066 9.939 85.238 9.939 L 85.238 9.939 Q 88.93 9.939 91.92 11.759 Q 94.91 13.579 96.652 16.933 Q 98.394 20.287 98.394 24.707 L 98.394 24.707 Q 98.394 29.127 96.652 32.533 Q 94.91 35.939 91.92 37.811 Q 88.93 39.683 85.238 39.683 L 85.238 39.683 Q 82.066 39.683 79.648 38.383 Q 77.23 37.083 75.722 35.107 L 75.722 35.107 L 75.722 52.943 L 68.442 52.943 L 68.442 10.407 L 75.722 10.407 L 75.722 14.567 Z M 90.958 24.707 Q 90.958 22.107 89.892 20.209 Q 88.826 18.311 87.084 17.323 Q 85.342 16.335 83.314 16.335 L 83.314 16.335 Q 81.338 16.335 79.596 17.349 Q 77.854 18.363 76.788 20.287 Q 75.722 22.211 75.722 24.811 L 75.722 24.811 Q 75.722 27.411 76.788 29.335 Q 77.854 31.259 79.596 32.273 Q 81.338 33.287 83.314 33.287 L 83.314 33.287 Q 85.342 33.287 87.084 32.247 Q 88.826 31.207 89.892 29.283 Q 90.958 27.359 90.958 24.707 L 90.958 24.707 Z M 130.582 24.187 Q 130.582 25.747 130.374 26.995 L 130.374 26.995 L 109.314 26.995 Q 109.574 30.115 111.498 31.883 Q 113.422 33.651 116.23 33.651 L 116.23 33.651 Q 120.286 33.651 122.002 30.167 L 122.002 30.167 L 129.854 30.167 Q 128.606 34.327 125.07 37.005 Q 121.534 39.683 116.386 39.683 L 116.386 39.683 Q 112.226 39.683 108.924 37.837 Q 105.622 35.991 103.776 32.611 Q 101.93 29.231 101.93 24.811 L 101.93 24.811 Q 101.93 20.339 103.75 16.959 Q 105.57 13.579 108.846 11.759 Q 112.122 9.939 116.386 9.939 L 116.386 9.939 Q 120.494 9.939 123.744 11.707 Q 126.994 13.475 128.788 16.725 Q 130.582 19.975 130.582 24.187 L 130.582 24.187 Z M 109.366 22.107 L 123.042 22.107 Q 122.99 19.299 121.014 17.609 Q 119.038 15.919 116.178 15.919 L 116.178 15.919 Q 113.474 15.919 111.628 17.557 Q 109.782 19.195 109.366 22.107 L 109.366 22.107 Z M 143.27 14.879 Q 144.674 12.591 146.936 11.291 Q 149.198 9.991 152.11 9.991 L 152.11 9.991 L 152.11 17.635 L 150.186 17.635 Q 146.754 17.635 145.012 19.247 Q 143.27 20.859 143.27 24.863 L 143.27 24.863 L 143.27 39.215 L 135.99 39.215 L 135.99 10.407 L 143.27 10.407 L 143.27 14.879 Z M 157.102 0.735 L 164.382 0.735 L 164.382 39.215 L 157.102 39.215 L 157.102 0.735 Z M 169.79 24.707 Q 169.79 20.339 171.532 16.959 Q 173.274 13.579 176.264 11.759 Q 179.254 9.939 182.946 9.939 L 182.946 9.939 Q 186.17 9.939 188.588 11.239 Q 191.006 12.539 192.462 14.515 L 192.462 14.515 L 192.462 10.407 L 199.794 10.407 L 199.794 39.215 L 192.462 39.215 L 192.462 35.003 Q 191.058 37.031 188.588 38.357 Q 186.118 39.683 182.894 39.683 L 182.894 39.683 Q 179.254 39.683 176.264 37.811 Q 173.274 35.939 171.532 32.533 Q 169.79 29.127 169.79 24.707 L 169.79 24.707 Z M 192.462 24.811 Q 192.462 22.159 191.422 20.261 Q 190.382 18.363 188.614 17.349 Q 186.846 16.335 184.818 16.335 L 184.818 16.335 Q 182.79 16.335 181.074 17.323 Q 179.358 18.311 178.292 20.209 Q 177.226 22.107 177.226 24.707 L 177.226 24.707 Q 177.226 27.307 178.292 29.257 Q 179.358 31.207 181.1 32.247 Q 182.842 33.287 184.818 33.287 L 184.818 33.287 Q 186.846 33.287 188.614 32.273 Q 190.382 31.259 191.422 29.361 Q 192.462 27.463 192.462 24.811 L 192.462 24.811 Z M 214.302 14.619 Q 215.706 12.539 218.176 11.239 Q 220.646 9.939 223.818 9.939 L 223.818 9.939 Q 227.51 9.939 230.5 11.759 Q 233.49 13.579 235.232 16.933 Q 236.974 20.287 236.974 24.707 L 236.974 24.707 Q 236.974 29.127 235.232 32.533 Q 233.49 35.939 230.5 37.811 Q 227.51 39.683 223.818 39.683 L 223.818 39.683 Q 220.594 39.683 218.176 38.409 Q 215.758 37.135 214.302 35.107 L 214.302 35.107 L 214.302 39.215 L 207.022 39.215 L 207.022 0.735 L 214.302 0.735 L 214.302 14.619 Z M 229.538 24.707 Q 229.538 22.107 228.472 20.209 Q 227.406 18.311 225.664 17.323 Q 223.922 16.335 221.894 16.335 L 221.894 16.335 Q 219.918 16.335 218.176 17.349 Q 216.434 18.363 215.368 20.287 Q 214.302 22.211 214.302 24.811 L 214.302 24.811 Q 214.302 27.411 215.368 29.335 Q 216.434 31.259 218.176 32.273 Q 219.918 33.287 221.894 33.287 L 221.894 33.287 Q 223.922 33.287 225.664 32.247 Q 227.406 31.207 228.472 29.283 Q 229.538 27.359 229.538 24.707 L 229.538 24.707 Z M 245.606 39.579 Q 243.63 39.579 242.356 38.357 Q 241.082 37.135 241.082 35.315 L 241.082 35.315 Q 241.082 33.495 242.356 32.273 Q 243.63 31.051 245.606 31.051 L 245.606 31.051 Q 247.53 31.051 248.778 32.273 Q 250.026 33.495 250.026 35.315 L 250.026 35.315 Q 250.026 37.135 248.778 38.357 Q 247.53 39.579 245.606 39.579 L 245.606 39.579 Z M 256.006 0.735 L 263.286 0.735 L 263.286 39.215 L 256.006 39.215 L 256.006 0.735 Z M 297.086 39.215 L 287.622 39.215 L 277.846 26.943 L 277.846 39.215 L 270.566 39.215 L 270.566 0.735 L 277.846 0.735 L 277.846 22.627 L 287.518 10.407 L 296.982 10.407 L 284.294 24.863 L 297.086 39.215 Z" stroke-linecap="round" />
</g>
</svg>